<?xml version="1.0" encoding="utf-8"?>
<!-- Generator: Adobe Illustrator 22.1.0, SVG Export Plug-In . SVG Version: 6.00 Build 0)  -->
<svg version="1.1" id="Layer_1" xmlns="http://www.w3.org/2000/svg" xmlns:xlink="http://www.w3.org/1999/xlink" x="0px" y="0px"
	 viewBox="0 0 988 140" style="enable-background:new 0 0 988 140;" xml:space="preserve">
<style type="text/css">
	.st0{clip-path:url(#SVGID_2_);fill:#FFFFFF;}
	.st1{fill:#FFFFFF;}
	.st2{clip-path:url(#SVGID_4_);}
	.st3{clip-path:url(#SVGID_6_);fill:#FFFFFF;}
</style>
<g>
	<g>
		<g>
			<defs>
				<path id="SVGID_1_" d="M979.2,110.7h-30.7v-6.6l7.6-0.9c2-0.3,2.3-0.6,2.3-2.8V65.5c0-14.4-2.6-21.8-14-21.8
					c-8.7,0-16.9,4.7-22.3,8.6c0.4,2.8,0.6,6,0.6,9.5v38.6c0,2.3,0.1,2.6,2.3,2.9l7.6,1v6.4h-29.1v-6.6l7.1-0.9
					c2-0.3,2.3-0.6,2.3-2.8V64.8c0-14.4-1.7-21.1-12.5-21.1c-10.9,0-20.1,7-24.3,10.9v45.7c0,2.3,0.1,2.6,2.3,2.9l8.7,1v6.4h-30.7
					V104l7.6-0.9c2-0.3,2.3-0.7,2.3-2.9v-52c0-1.6-0.4-2.6-1.9-3.1l-8.4-2.8l1.2-6.1h16.4l1.2,9l0.4,0.1c6-4.7,15.1-10.6,27.4-10.6
					c9.5,0,14.6,3.3,17.3,9.5c7-4.9,15.7-9.5,26.6-9.5c17,0,21.5,10.8,21.5,27.7v37.8c0,2.3,0.1,2.6,2.3,2.9l8.7,1v6.6H979.2z
					 M820.2,104.4c16,0,24.3-10.6,24.3-31.2c0-19.9-7.6-29.8-23.6-29.8c-16.2,0-25.2,10-25.2,30S804.1,104.4,820.2,104.4z
					 M819.8,112.4c-24.2,0-34.1-16.3-34.1-39.2c0-22.7,11.4-38.4,35.5-38.4c24,0,33.3,15.7,33.3,37.4
					C854.6,96.5,843.8,112.4,819.8,112.4z M778.2,98.6l3.8,8.2c-5.1,3.3-14.7,5.7-23.9,5.7c-24.3,0-34.5-15.7-34.5-38.1
					c0-27.8,15.7-39.4,37.4-39.4c10.5,0,17.9,2.8,20.7,3.9v17.9l-7.4-0.4l-1.7-9.6c-0.1-0.9-0.3-1.5-1.6-1.9
					c-2-0.7-6.6-1.5-11.1-1.5c-14.6,0-26.1,8.3-26.1,30.6c0,21,10,29.8,25.6,29.8C766.7,103.7,773.4,101.6,778.2,98.6z M723,104.1
					c0,5.5-3.1,8.3-8.4,8.3s-8.4-2.8-8.4-8.3s3.1-8.3,8.4-8.3S723,98.6,723,104.1z"/>
			</defs>
			<clipPath id="SVGID_2_">
				<use xlink:href="#SVGID_1_"  style="overflow:visible;"/>
			</clipPath>
			<rect x="696.3" y="25" class="st0" width="292.7" height="97.3"/>
		</g>
	</g>
	<path class="st1" d="M558.6,50.2c-0.4-1.1-0.9-2.2-1.4-3.2l1.2-9h25.3l1.7,11.4h0.9c4.7-7.3,11.1-12.9,20.2-12.9
		c3.3,0,9.9,0.6,12.5,1.3v26.1l-17.2-0.6l-1.4-7.6c-0.3-1.3-0.7-1.6-1.9-1.6c-3.7,0-8.2,3.1-10.3,5V97c0,2.3,0.1,2.7,2.3,2.9
		l14.2,1.1v11.5h-46.9v-11.6l6.5-0.9c2-0.3,2.3-0.7,2.3-2.9V55.2c0-1.6-0.4-2.6-1.9-3L558.6,50.2z"/>
	<path class="st1" d="M441.2,71.4l-12.3,41.1h-22.7L395,64.6h-0.9l-11.3,47.9H357l-18.1-59.3c-0.6-1.7-1.3-2-3-2.4l-1.4-0.3v10.9
		l-15.4-1l-1.4-7.4c-0.1-1.1-0.4-1.7-1.4-2c-1.9-0.6-5.3-1.1-9.2-1.1c-7.2,0-11.2,2.7-11.2,7.3c0,5.9,7.9,7.2,16.6,9.2
		c11.3,2.6,24.1,6.6,24.1,23.3c0,17.5-14.2,24.6-32.4,24.6c-13.1,0-25.8-3.4-28.4-5.2V88.3l15.4,1.1l1.4,8.2
		c0.1,1.3,0.4,1.9,1.7,2.1c1.7,0.6,5.6,1.4,11.1,1.4c7.6,0,11.9-2.1,11.9-7.4c0-5.7-5.7-7.4-13.1-8.7c-12.1-2.1-27.8-4.7-27.8-23.5
		c0-17.7,15.2-25.1,31.7-25.1c9.4,0,18.5,1.8,23.7,3.3l0.4-1.8h36.3v11.9l-8,0.9l11.4,40.2h1l12.8-51.1h21.7l12.3,51.1h0.9
		l10.8-40.2l-8.2-0.9l1.8-11.9h27.4C445.7,47.4,441.6,58.9,441.2,71.4z"/>
	<path class="st1" d="M691.7,100.2c-2.2-0.3-2.3-0.6-2.3-2.8v-93h-28.8L659,16l7.9,2.7c1.3,0.5,1.9,1.5,1.9,2.9v21.9
		c-5.4-4-11.9-6.9-20.2-6.9c-15.9,0-30.4,10.8-30.4,39.6c0,27.4,10.9,38.1,27.8,38.1c10.4,0,17.5-4,23.5-9.9l1,0.1l1.4,8h26.7v-11.3
		L691.7,100.2z M653.8,97.4c-9,0-13.1-7.7-13.1-21.6c0-12.7,4.2-22.6,14.8-22.6c4.2,0,8.8,1.9,12.3,4.3v33.7h0.1
		C664,94.5,658.7,97.4,653.8,97.4z"/>
	<path class="st1" d="M250.8,66.3c-8.8-2-16.7-3.3-16.6-9.1c0-4.6,4-7.3,11.2-7.3c3.9,0,7.3,0.5,9.2,1.1c1,0.3,1.3,0.9,1.4,2
		l1.4,7.4l15.4,1V40.6c-4-1.6-15.1-4.2-26.4-4.2c-16.5,0-31.7,7.4-31.7,25.1c0,18.8,15.7,21.4,27.8,23.5c7.4,1.3,13.1,3,13.1,8.7
		c0,5.3-4.3,7.4-11.9,7.4c-5.5,0-9.4-0.8-11.1-1.4c-1.3-0.2-1.6-0.8-1.7-2.1l-1.4-8.2l-15.4-1.1v13l-5.8-1c-2.2-0.3-2.3-0.6-2.3-2.9
		V62.6c0-20-8.8-25.9-30.6-25.9c-13.2,0-30.9,2.7-30.9,22l20.2,1.7c0-8.6,3.6-9.6,10.5-9.6c8.9,0,9.6,4.6,9.6,11.3V70l-16.5,1.1
		c-17.9,1.1-26.8,7.7-26.8,22c0,8.9,2.9,21.2,21,21.2c11.5,0,18.6-4.3,24.1-9.6l0.7,0.1l1.4,7.7h26.4v-2.9
		c4.1,1.8,15.6,4.6,27.4,4.6c18.2,0,32.4-7.1,32.4-24.6C274.9,72.9,262.1,68.9,250.8,66.3z M184.8,93.6c-3.3,2.4-8.2,5.2-13.1,5.2
		c-4.7,0-8.2-2.1-8.2-7.9c0-5.7,3-7.9,11.5-8.4l9.8-0.7V93.6z"/>
	<path class="st1" d="M104.4,74.3c24.3,0,39.3-10,39.4-34.9c0-16.5-8-30.5-34.6-30.5H60.5v11.4l9,1c2,0.2,2.3,0.8,2.3,2.9v73.1
		c0,2.2-0.3,2.6-2.3,2.9l-9,1v11.3h56.2v-11.3l-20.5-1.1c-2.2-0.3-2.3-0.6-2.3-2.9V74.3H104.4z M102.4,24.5
		c10.2,0,18.7,2.4,18.7,16.2c0,16.2-10.5,18.3-19.9,18.3H94V24.5H102.4z"/>
	<path class="st1" d="M46.4,24v73.3c0,2.3,0.1,2.7,2.3,2.9l11.8,1v11.3H10.1v-11.3l12.3-1c2-0.1,2.3-0.7,2.3-2.9V47.9
		c0-2.1-1.5-1.7-12.3,1.9l-4-11.7L33,24H46.4z"/>
	<g>
		<g>
			<defs>
				<path id="SVGID_3_" d="M494.1,62.7c0,0.4,0.2,0.7,0.4,1l2.5,2.5c0.6,0.6,0.6,1.5,0,2l-2.5,2.5c-0.3,0.3-0.4,0.6-0.4,1v26
					c0,1.6,1.3,2.9,2.9,2.9h10c1.6,0,2.9-1.3,2.9-2.9V83.5c0-0.4-0.2-0.7-0.4-1L507,80c-0.6-0.6-0.6-1.5,0-2l2.5-2.5
					c0.3-0.3,0.4-0.6,0.4-1v-26c0-1.6-1.3-2.9-2.9-2.9h-10c-1.6,0-2.9,1.3-2.9,2.9V62.7z M539.2,73.1c0,20.6-16.7,37.3-37.3,37.3
					s-37.3-16.7-37.3-37.3s16.7-37.3,37.3-37.3S539.2,52.5,539.2,73.1z M552,73.1c0-27.6-22.4-50-50-50c-27.6,0-50,22.4-50,50
					s22.4,50,50,50C529.6,123.1,552,100.7,552,73.1z M439.2,73.1c0-34.7,28.1-62.8,62.8-62.8s62.8,28.1,62.8,62.8
					s-28.1,62.8-62.8,62.8S439.2,107.8,439.2,73.1z"/>
			</defs>
			<clipPath id="SVGID_4_">
				<use xlink:href="#SVGID_3_"  style="overflow:visible;"/>
			</clipPath>
			<g class="st2">
				<g>
					<defs>
						<rect id="SVGID_5_" x="439.2" y="10.3" width="125.9" height="125.9"/>
					</defs>
					<clipPath id="SVGID_6_">
						<use xlink:href="#SVGID_5_"  style="overflow:visible;"/>
					</clipPath>
					<rect x="429.4" y="0.5" class="st3" width="145.2" height="145.2"/>
				</g>
			</g>
		</g>
	</g>
</g>
</svg>
